<svg width="83" height="48" viewBox="0 0 83 48" fill="none" xmlns="http://www.w3.org/2000/svg">
<g id="Group 1000004219">
<g id="Group 1000004217">
<path id="Vector 1" d="M46.1886 25.7983C40.1409 31.9441 32.0772 33.8064 28.5952 33.4337L27.1291 33.0614C27.3124 32.9993 28.6685 32.6144 32.627 31.5715C36.4478 30.1738 39.3764 27.2219 42.1568 24.2279C41.9124 24.0686 41.0572 23.4891 39.5911 22.4462C38.125 21.4033 36.706 22.0418 36.1091 22.4462C35.9258 22.5703 34.7162 23.3401 31.3442 25.4259C27.9721 27.5117 23.2195 28.2815 21.2646 28.4056C22.5475 27.4745 25.8463 25.55 27.1291 24.4947C27.5567 24.1416 29.4016 22.5672 33.3601 19.0941C34.9278 17.7186 36.5088 17.6596 37.9417 18.2697C38.0639 17.9237 39.0046 16.6357 41.7903 14.252C44.5759 11.8682 46.1886 12.5761 47.4714 13.6933C47.5936 13.8175 48.4244 14.7734 50.7702 17.6041C53.116 20.4349 57.0012 22.1357 58.6506 22.6323C53.959 24.8671 49.8539 21.7012 48.3878 19.8388C47.4714 18.5352 45.6231 16.0072 43.6229 15.5555C41.9735 15.1831 39.6522 17.4912 38.6748 18.6453C40.5346 19.7577 42.0726 21.8867 42.8898 23.4355C43.196 23.1039 43.4925 22.7649 43.8062 22.4462C46.5551 19.6528 49.6706 23.5637 51.8698 26.1709C50.2204 25.6122 48.571 23.4355 46.1886 25.7983Z" fill="#4FFFCA"/>
<path id="Vector 1 (Stroke)" fill-rule="evenodd" clip-rule="evenodd" d="M45.1975 12.5563C46.1443 12.5756 46.8907 13.0502 47.539 13.6148L47.542 13.6174L47.5448 13.6202C47.6709 13.7484 48.5055 14.7091 50.8494 17.5376C53.1769 20.3462 57.0403 22.0392 58.6807 22.5331L58.9384 22.6107L58.695 22.7266C56.3187 23.8585 54.0893 23.6222 52.2721 22.8684C50.4577 22.1159 49.0514 20.8469 48.3091 19.904L48.3073 19.9018L48.3057 19.8995C47.8479 19.2482 47.1607 18.2961 46.3401 17.4509C45.5173 16.6034 44.5724 15.8764 43.6018 15.6572C43.2161 15.5701 42.7833 15.6382 42.3292 15.8161C41.8756 15.9937 41.4083 16.2779 40.9582 16.6121C40.1054 17.2453 39.3255 18.0497 38.8328 18.6203C40.6178 19.731 42.0919 21.7448 42.913 23.2596C42.9757 23.191 43.0383 23.1221 43.101 23.0529C43.3092 22.8236 43.5185 22.593 43.735 22.3731C44.439 21.6576 45.1751 21.3644 45.9197 21.3796C46.66 21.3947 47.3951 21.7145 48.1022 22.1975C49.4194 23.0972 50.6732 24.5878 51.7253 25.8386C51.8007 25.9283 51.8751 26.0167 51.9484 26.1037L52.1885 26.3882L51.8386 26.2697C51.4234 26.1291 51.0104 25.8896 50.5977 25.6502L50.5717 25.6352C50.1466 25.3887 49.7196 25.1432 49.2721 24.9876C48.8267 24.8327 48.3654 24.7686 47.8732 24.8826C47.3806 24.9968 46.8471 25.2918 46.2614 25.8724C43.2254 28.9575 39.6843 30.9668 36.4658 32.1583C33.2493 33.349 30.3468 33.7258 28.5856 33.5373L28.5785 33.5365L26.765 33.0759L27.0979 32.9632C27.2853 32.8997 28.6451 32.5139 32.5979 31.4725C36.3526 30.0975 39.2444 27.2098 41.9995 24.2475C41.661 24.022 40.8389 23.4601 39.5336 22.5315C38.1187 21.5251 36.7496 22.138 36.1668 22.5329C35.9813 22.6585 34.7694 23.4297 31.3984 25.5149C28.0058 27.6134 23.2339 28.3849 21.2721 28.5095L20.916 28.5321L21.2063 28.3214C21.736 27.937 22.6064 27.3849 23.5338 26.7965C23.7354 26.6686 23.9396 26.539 24.1437 26.4091C25.2907 25.6786 26.4301 24.9373 27.0658 24.4144C27.4921 24.0624 29.3358 22.489 33.2944 19.0158C34.091 18.3168 34.896 17.9484 35.6883 17.8348C36.4469 17.726 37.1873 17.8519 37.89 18.136C37.9377 18.0415 38.014 17.9194 38.1215 17.7702C38.2732 17.5597 38.4918 17.2887 38.793 16.9551C39.3953 16.2878 40.3303 15.3668 41.7255 14.1729C43.1282 12.9725 44.2513 12.5369 45.1975 12.5563ZM38.079 18.2166C38.2739 18.3039 38.4657 18.4032 38.654 18.5126C39.1513 17.9334 39.9542 17.1004 40.8376 16.4444C41.2962 16.1039 41.7796 15.8088 42.2557 15.6223C42.7312 15.4361 43.2071 15.3554 43.6461 15.4545C44.6757 15.687 45.6551 16.4497 46.4856 17.3051C47.3173 18.1617 48.0118 19.1241 48.4703 19.7765C49.1946 20.6957 50.5731 21.9395 52.3493 22.6762C54.0615 23.3864 56.1405 23.6247 58.3639 22.6503C56.5862 22.0632 52.9417 20.3848 50.6931 17.6713C48.3624 14.8588 47.5305 13.901 47.4029 13.7697C46.7692 13.2184 46.0687 12.7818 45.1934 12.7639C44.3162 12.7459 43.24 13.1483 41.8571 14.3317C40.4667 15.5215 39.5385 16.4364 38.9435 17.0955C38.646 17.4251 38.4325 17.69 38.2864 17.8928C38.1858 18.0324 38.1193 18.1397 38.079 18.2166ZM42.142 24.0941C42.3506 23.8692 42.5585 23.644 42.766 23.4193C41.9446 21.8845 40.4349 19.8182 38.624 18.735C38.3883 18.594 38.1477 18.4699 37.9033 18.3658C37.2004 18.0665 36.4656 17.9331 35.7168 18.0404C34.9684 18.1477 34.199 18.4964 33.4279 19.1729C29.4696 22.6459 27.6236 24.2214 27.1946 24.5756C26.5474 25.108 25.3959 25.8567 24.2522 26.585C24.0468 26.7159 23.8415 26.8461 23.6393 26.9743C22.8761 27.4585 22.1566 27.915 21.6337 28.2734C23.7628 28.0831 28.139 27.2879 31.2921 25.3375C34.6652 23.2511 35.8724 22.4828 36.0535 22.3601C36.6644 21.9461 38.1333 21.282 39.6507 22.3614C40.9976 23.3196 41.8279 23.8858 42.142 24.0941ZM45.9156 21.5872C45.2342 21.5733 44.5499 21.8386 43.8795 22.5199C43.666 22.7369 43.4614 22.9622 43.2547 23.1899C43.1591 23.2952 43.063 23.4011 42.9654 23.5068L42.9579 23.515C42.9579 23.515 42.9579 23.515 42.9579 23.515C42.7169 23.776 42.4751 24.0379 42.2322 24.2995C39.4527 27.2924 36.5091 30.2624 32.6627 31.6695L32.6583 31.6711L32.6537 31.6723C29.6552 32.4623 28.1521 32.8742 27.5211 33.054L28.6141 33.3315C30.3357 33.5139 33.2025 33.1453 36.3959 31.9632C39.5915 30.7802 43.1058 28.7856 46.1174 25.7251L46.1183 25.7243C46.7237 25.1238 47.2896 24.8049 47.8278 24.6802C48.3664 24.5554 48.8673 24.6273 49.3382 24.7911C49.807 24.9541 50.2505 25.2099 50.673 25.4549L50.6893 25.4643C50.9754 25.6302 51.2511 25.79 51.5228 25.9175C50.4772 24.6748 49.26 23.2385 47.9882 22.3698C47.298 21.8983 46.6013 21.6012 45.9156 21.5872Z" fill="#4FFFCA"/>
</g>
<path id="Ellipse 2" d="M8.36292 34.0152C9.53209 25.8712 13.5728 18.4217 19.7311 13.0568C25.8893 7.69192 33.7443 4.77827 41.8301 4.85958C49.9159 4.94088 57.6801 8.01158 63.6738 13.4986C69.6674 18.9857 73.481 26.5142 74.4029 34.6792L71.5094 33.4128C70.6594 25.8845 67.4567 20.525 61.9304 15.4658C56.4041 10.4066 49.2453 7.57535 41.79 7.50038C34.3347 7.42542 27.0923 10.1119 21.4142 15.0584C15.7362 20.0049 13.2673 25.4744 11.2953 32.8618L8.36292 34.0152Z" fill="#4FFFCA"/>
<g id="Hill Dekho">
<path id="Vector" d="M82.999 43.32C82.999 44.0669 82.8837 44.7354 82.6531 45.3257C82.4226 45.9039 82.0949 46.3917 81.6701 46.7893C81.2575 47.1868 80.7599 47.4879 80.1774 47.6927C79.5948 47.8975 78.9455 47.9999 78.2295 47.9999C77.5135 47.9999 76.8642 47.8915 76.2816 47.6746C75.6991 47.4578 75.1954 47.1506 74.7707 46.7531C74.358 46.3436 74.0364 45.8497 73.8058 45.2715C73.5753 44.6933 73.46 44.0428 73.46 43.32C73.46 42.6093 73.5753 41.9648 73.8058 41.3866C74.0364 40.8084 74.358 40.3206 74.7707 39.923C75.1954 39.5135 75.6991 39.2003 76.2816 38.9834C76.8642 38.7666 77.5135 38.6582 78.2295 38.6582C78.9455 38.6582 79.5948 38.7726 80.1774 39.0015C80.7599 39.2183 81.2575 39.5315 81.6701 39.9411C82.0949 40.3386 82.4226 40.8265 82.6531 41.4047C82.8837 41.9829 82.999 42.6213 82.999 43.32ZM76.6275 43.32C76.6275 44.0548 76.7671 44.621 77.0462 45.0185C77.3375 45.404 77.738 45.5967 78.2477 45.5967C78.7574 45.5967 79.1458 45.398 79.4128 45.0004C79.6919 44.6029 79.8315 44.0428 79.8315 43.32C79.8315 42.5973 79.6919 42.0431 79.4128 41.6577C79.1336 41.2601 78.7392 41.0614 78.2295 41.0614C77.7198 41.0614 77.3253 41.2601 77.0462 41.6577C76.7671 42.0431 76.6275 42.5973 76.6275 43.32Z" fill="#4FFFCA"/>
<path id="Vector_2" d="M71.9312 47.6922C71.8098 47.7283 71.6156 47.7644 71.3486 47.8006C71.0938 47.8367 70.8268 47.8548 70.5476 47.8548C70.2806 47.8548 70.0379 47.8367 69.8195 47.8006C69.6131 47.7644 69.4372 47.6922 69.2915 47.5837C69.1459 47.4753 69.0306 47.3308 68.9457 47.1501C68.8728 46.9574 68.8364 46.7104 68.8364 46.4093V42.3979C68.8364 41.904 68.709 41.5607 68.4541 41.368C68.2114 41.1632 67.908 41.0608 67.5439 41.0608C67.3012 41.0608 67.0706 41.0909 66.8522 41.1512C66.6337 41.2114 66.4577 41.2837 66.3242 41.368V47.6922C66.2029 47.7283 66.0087 47.7644 65.7417 47.8006C65.4868 47.8367 65.2198 47.8548 64.9407 47.8548C64.6737 47.8548 64.431 47.8367 64.2125 47.8006C64.0062 47.7644 63.8302 47.6922 63.6846 47.5837C63.539 47.4753 63.4237 47.3308 63.3387 47.1501C63.2659 46.9574 63.2295 46.7104 63.2295 46.4093V35.9292C63.363 35.9051 63.5572 35.875 63.812 35.8389C64.079 35.7907 64.346 35.7666 64.613 35.7666C64.88 35.7666 65.1167 35.7847 65.323 35.8208C65.5414 35.8569 65.7235 35.9292 65.8691 36.0376C66.0148 36.1461 66.124 36.2966 66.1968 36.4894C66.2818 36.6701 66.3242 36.911 66.3242 37.2121V38.9829C66.482 38.9227 66.7187 38.8564 67.0342 38.7841C67.3619 38.6998 67.7199 38.6576 68.1083 38.6576C69.3097 38.6576 70.2442 38.9588 70.9117 39.5611C71.5913 40.1514 71.9312 41.0367 71.9312 42.2172V47.6922Z" fill="#4FFFCA"/>
<path id="Vector_3" d="M61.7439 46.1202C61.6833 46.6863 61.5134 47.12 61.2342 47.4211C60.9672 47.7223 60.5728 47.8729 60.0509 47.8729C59.6626 47.8729 59.3167 47.7825 59.0133 47.6018C58.7099 47.4091 58.3822 47.0899 58.0303 46.6442L56.228 44.4036V47.6922C56.0945 47.7163 55.8943 47.7464 55.6273 47.7825C55.3724 47.8307 55.1115 47.8548 54.8445 47.8548C54.5775 47.8548 54.3348 47.8367 54.1163 47.8006C53.91 47.7644 53.734 47.6922 53.5884 47.5837C53.4428 47.4753 53.3275 47.3308 53.2425 47.1501C53.1697 46.9574 53.1333 46.7104 53.1333 46.4093V35.9473C53.2668 35.9112 53.461 35.875 53.7158 35.8389C53.9828 35.7907 54.2498 35.7666 54.5168 35.7666C54.7838 35.7666 55.0205 35.7847 55.2268 35.8208C55.4453 35.8569 55.6273 35.9292 55.7729 36.0376C55.9186 36.1461 56.0278 36.2966 56.1006 36.4894C56.1856 36.6701 56.228 36.911 56.228 37.2121V41.9823L59.3592 38.8022C59.9903 38.8022 60.4939 38.9407 60.8701 39.2178C61.2585 39.4948 61.4527 39.8442 61.4527 40.2658C61.4527 40.4465 61.4223 40.6151 61.3617 40.7717C61.301 40.9163 61.2039 41.0669 61.0704 41.2234C60.949 41.38 60.7852 41.5487 60.5789 41.7294C60.3847 41.898 60.1541 42.0968 59.8871 42.3257L58.8313 43.2291L61.7439 46.1202Z" fill="#4FFFCA"/>
<path id="Vector_4" d="M47.7844 47.9999C47.0684 47.9999 46.4009 47.9035 45.782 47.7108C45.1751 47.506 44.6412 47.2049 44.18 46.8073C43.7309 46.4098 43.3729 45.9099 43.1059 45.3076C42.8511 44.7053 42.7236 44.0006 42.7236 43.1935C42.7236 42.3985 42.8511 41.7179 43.1059 41.1517C43.3729 40.5735 43.7188 40.1037 44.1436 39.7423C44.5683 39.3689 45.0538 39.0979 45.5999 38.9292C46.146 38.7485 46.7043 38.6582 47.2747 38.6582C47.9179 38.6582 48.5005 38.7546 49.0223 38.9473C49.5563 39.14 50.0114 39.4051 50.3877 39.7423C50.776 40.0796 51.0734 40.4832 51.2797 40.953C51.4981 41.4228 51.6073 41.9347 51.6073 42.4888C51.6073 42.8984 51.4921 43.2116 51.2615 43.4284C51.0309 43.6453 50.7093 43.7838 50.2966 43.844L45.8002 44.5126C45.9337 44.9101 46.2067 45.2112 46.6194 45.416C47.032 45.6088 47.5053 45.7051 48.0393 45.7051C48.5369 45.7051 49.0041 45.6449 49.441 45.5244C49.8901 45.3919 50.2542 45.2414 50.5333 45.0727C50.7275 45.1932 50.8913 45.3618 51.0248 45.5786C51.1583 45.7955 51.2251 46.0243 51.2251 46.2653C51.2251 46.8073 50.9702 47.2109 50.4605 47.4759C50.0721 47.6807 49.6352 47.8192 49.1498 47.8915C48.6643 47.9638 48.2092 47.9999 47.7844 47.9999ZM47.2747 40.8988C46.9834 40.8988 46.7286 40.9469 46.5101 41.0433C46.3038 41.1397 46.1339 41.2662 46.0004 41.4228C45.8669 41.5673 45.7638 41.736 45.6909 41.9287C45.6303 42.1094 45.5938 42.2961 45.5817 42.4888L48.6946 41.9829C48.6582 41.742 48.5247 41.5011 48.2942 41.2601C48.0636 41.0192 47.7238 40.8988 47.2747 40.8988Z" fill="#4FFFCA"/>
<path id="Vector_5" d="M34.3858 45.3621C34.5193 45.3862 34.6832 45.4103 34.8773 45.4344C35.0715 45.4465 35.2536 45.4525 35.4235 45.4525C35.8361 45.4525 36.2123 45.3922 36.5521 45.2718C36.9041 45.1513 37.2014 44.9646 37.4441 44.7116C37.699 44.4587 37.8932 44.1334 38.0267 43.7359C38.1723 43.3264 38.2451 42.8385 38.2451 42.2723C38.2451 41.1882 37.9903 40.3751 37.4805 39.833C36.9708 39.2789 36.2912 39.0018 35.4417 39.0018C35.2718 39.0018 35.0958 39.0079 34.9137 39.0199C34.7438 39.0319 34.5679 39.05 34.3858 39.0741V45.3621ZM35.4053 48.0002C35.1989 48.0002 34.9623 47.9942 34.6953 47.9821C34.4283 47.9701 34.1492 47.946 33.8579 47.9099C33.5788 47.8737 33.2936 47.8255 33.0023 47.7653C32.7232 47.7171 32.4622 47.6449 32.2195 47.5485C31.552 47.2955 31.2183 46.8558 31.2183 46.2294V37.7912C31.2183 37.5382 31.285 37.3455 31.4185 37.213C31.5641 37.0684 31.7583 36.954 32.001 36.8697C32.5229 36.701 33.0751 36.5926 33.6576 36.5444C34.2402 36.4842 34.762 36.4541 35.2232 36.4541C36.1698 36.4541 37.0254 36.5685 37.79 36.7974C38.5667 37.0263 39.2282 37.3816 39.7743 37.8635C40.3326 38.3333 40.7634 38.9296 41.0668 39.6523C41.3702 40.3751 41.5219 41.2303 41.5219 42.2181C41.5219 43.1818 41.3763 44.025 41.085 44.7478C40.7937 45.4585 40.375 46.0608 39.8289 46.5547C39.2949 47.0365 38.6517 47.3979 37.8992 47.6388C37.1468 47.8798 36.3155 48.0002 35.4053 48.0002Z" fill="#4FFFCA"/>
<path id="Vector_6" d="M25.3833 47.6922C25.2498 47.7163 25.0496 47.7464 24.7826 47.7825C24.5277 47.8307 24.2668 47.8548 23.9998 47.8548C23.7328 47.8548 23.4901 47.8367 23.2716 47.8006C23.0653 47.7644 22.8893 47.6922 22.7437 47.5837C22.598 47.4753 22.4828 47.3308 22.3978 47.1501C22.325 46.9574 22.2886 46.7104 22.2886 46.4093V35.9292C22.4221 35.9051 22.6163 35.875 22.8711 35.8389C23.1381 35.7907 23.4051 35.7666 23.6721 35.7666C23.9391 35.7666 24.1758 35.7847 24.3821 35.8208C24.6005 35.8569 24.7826 35.9292 24.9282 36.0376C25.0738 36.1461 25.1831 36.2966 25.2559 36.4894C25.3408 36.6701 25.3833 36.911 25.3833 37.2121V47.6922Z" fill="#4FFFCA"/>
<path id="Vector_7" d="M20.2813 47.6922C20.1478 47.7163 19.9475 47.7464 19.6805 47.7825C19.4257 47.8307 19.1647 47.8548 18.8977 47.8548C18.6307 47.8548 18.388 47.8367 18.1696 47.8006C17.9632 47.7644 17.7873 47.6922 17.6416 47.5837C17.496 47.4753 17.3807 47.3308 17.2957 47.1501C17.2229 46.9574 17.1865 46.7104 17.1865 46.4093V35.9292C17.32 35.9051 17.5142 35.875 17.7691 35.8389C18.0361 35.7907 18.3031 35.7666 18.5701 35.7666C18.837 35.7666 19.0737 35.7847 19.28 35.8208C19.4985 35.8569 19.6805 35.9292 19.8261 36.0376C19.9718 36.1461 20.081 36.2966 20.1538 36.4894C20.2388 36.6701 20.2813 36.911 20.2813 37.2121V47.6922Z" fill="#4FFFCA"/>
<path id="Vector_8" d="M11.9224 36.4895C11.9224 36.0317 12.0741 35.6463 12.3775 35.3331C12.693 35.0199 13.1056 34.8633 13.6154 34.8633C14.1251 34.8633 14.5316 35.0199 14.8351 35.3331C15.1506 35.6463 15.3084 36.0317 15.3084 36.4895C15.3084 36.9472 15.1506 37.3327 14.8351 37.6459C14.5316 37.9591 14.1251 38.1157 13.6154 38.1157C13.1056 38.1157 12.693 37.9591 12.3775 37.6459C12.0741 37.3327 11.9224 36.9472 11.9224 36.4895ZM15.1627 47.6923C15.0292 47.7164 14.829 47.7465 14.562 47.7826C14.3071 47.8308 14.0462 47.8549 13.7792 47.8549C13.5122 47.8549 13.2695 47.8368 13.051 47.8007C12.8447 47.7646 12.6687 47.6923 12.5231 47.5839C12.3775 47.4755 12.2622 47.3309 12.1772 47.1502C12.1044 46.9575 12.068 46.7105 12.068 46.4094V39.0553C12.2015 39.0312 12.3957 39.0011 12.6505 38.965C12.9175 38.9168 13.1845 38.8927 13.4515 38.8927C13.7185 38.8927 13.9552 38.9107 14.1615 38.9469C14.3799 38.983 14.562 39.0553 14.7076 39.1637C14.8533 39.2721 14.9625 39.4227 15.0353 39.6154C15.1203 39.7961 15.1627 40.037 15.1627 40.3382V47.6923Z" fill="#4FFFCA"/>
<path id="Vector_9" d="M9.86674 47.6388C9.73324 47.6749 9.52086 47.7111 9.22959 47.7472C8.95046 47.7834 8.67133 47.8014 8.39219 47.8014C8.11306 47.8014 7.86427 47.7773 7.64582 47.7292C7.4395 47.693 7.26353 47.6207 7.11789 47.5123C6.97226 47.4039 6.86303 47.2533 6.79021 47.0606C6.7174 46.8679 6.68099 46.6149 6.68099 46.3017V43.4829H3.18576V47.6388C3.05226 47.6749 2.83987 47.7111 2.54861 47.7472C2.26947 47.7834 1.99034 47.8014 1.71121 47.8014C1.43207 47.8014 1.18328 47.7773 0.964829 47.7292C0.758514 47.693 0.582538 47.6207 0.436904 47.5123C0.291269 47.4039 0.182043 47.2533 0.109226 47.0606C0.0364086 46.8679 0 46.6149 0 46.3017V36.7613C0.133498 36.7372 0.345882 36.707 0.637151 36.6709C0.92842 36.6227 1.20755 36.5986 1.47455 36.5986C1.75368 36.5986 1.99641 36.6227 2.20272 36.6709C2.42118 36.707 2.60322 36.7793 2.74885 36.8877C2.89449 36.9962 3.00371 37.1467 3.07653 37.3395C3.14935 37.5322 3.18576 37.7852 3.18576 38.0984V40.9894H6.68099V36.7613C6.81449 36.7372 7.02687 36.707 7.31814 36.6709C7.60941 36.6227 7.88854 36.5986 8.15554 36.5986C8.43467 36.5986 8.67739 36.6227 8.88371 36.6709C9.10216 36.707 9.28421 36.7793 9.42984 36.8877C9.57547 36.9962 9.6847 37.1467 9.75752 37.3395C9.83034 37.5322 9.86674 37.7852 9.86674 38.0984V47.6388Z" fill="#4FFFCA"/>
</g>
</g>
</svg>
