<svg width="25" height="24" viewBox="0 0 25 24" fill="none" xmlns="http://www.w3.org/2000/svg">
<g id="vuesax/outline/reserve">
<g id="reserve">
<path id="Vector" d="M19.47 22.75H5.46997C1.71997 22.75 1.71997 20.67 1.71997 19V18C1.71997 17.04 2.50997 16.25 3.46997 16.25H21.47C22.43 16.25 23.22 17.04 23.22 18V19C23.22 20.67 23.22 22.75 19.47 22.75ZM3.46997 17.75C3.32997 17.75 3.21997 17.86 3.21997 18V19C3.21997 20.64 3.21997 21.25 5.46997 21.25H19.47C21.72 21.25 21.72 20.64 21.72 19V18C21.72 17.86 21.61 17.75 21.47 17.75H3.46997Z" fill="#808080"/>
<path id="Vector_2" d="M21.22 17.75H3.77002C3.36002 17.75 3.02002 17.41 3.02002 17V13C3.02002 8.9 5.93002 5.3 9.93002 4.45C10.52 4.32 11.14 4.25 11.77 4.25H13.22C13.86 4.25 14.48 4.32 15.07 4.45C19.07 5.31 21.97 8.91 21.97 13V17C21.97 17.41 21.64 17.75 21.22 17.75ZM4.52002 16.25H20.47V13C20.47 9.61 18.07 6.63 14.75 5.91C14.26 5.8 13.75 5.75 13.22 5.75H11.77C11.25 5.75 10.74 5.8 10.25 5.91C6.93002 6.62 4.52002 9.6 4.52002 13V16.25Z" fill="#808080"/>
<path id="Vector_3" d="M10.09 5.93C9.76 5.93 9.46 5.71 9.37 5.38C9.29 5.09 9.25 4.8 9.25 4.5C9.25 2.71 10.71 1.25 12.5 1.25C14.29 1.25 15.75 2.71 15.75 4.5C15.75 4.8 15.71 5.09 15.63 5.38C15.53 5.76 15.15 6 14.75 5.91C14.26 5.8 13.75 5.75 13.22 5.75H11.77C11.25 5.75 10.74 5.8 10.25 5.91C10.2 5.92 10.15 5.93 10.09 5.93ZM11.77 4.25H13.22C13.56 4.25 13.91 4.27 14.24 4.31C14.15 3.43 13.4 2.75 12.5 2.75C11.6 2.75 10.86 3.43 10.76 4.31C11.1 4.27 11.43 4.25 11.77 4.25Z" fill="#808080"/>
<path id="Vector_4" d="M15.5 11.75H9.5C9.09 11.75 8.75 11.41 8.75 11C8.75 10.59 9.09 10.25 9.5 10.25H15.5C15.91 10.25 16.25 10.59 16.25 11C16.25 11.41 15.91 11.75 15.5 11.75Z" fill="#808080"/>
</g>
</g>
</svg>
